<?xml version="1.0" encoding="UTF-8" standalone="no"?>
<!-- Created with Inkscape (http://www.inkscape.org/) -->

<svg
   version="1.1"
   id="svg2"
   width="2829.3333"
   height="2829.3333"
   viewBox="0 0 2829.3333 2829.3333"
   sodipodi:docname="3442_R1NUIENBUiAyNjQ2LTM2.eps"
   xmlns:inkscape="http://www.inkscape.org/namespaces/inkscape"
   xmlns:sodipodi="http://sodipodi.sourceforge.net/DTD/sodipodi-0.dtd"
   xmlns="http://www.w3.org/2000/svg"
   xmlns:svg="http://www.w3.org/2000/svg">
  <defs
     id="defs6" />
  <sodipodi:namedview
     id="namedview4"
     pagecolor="#ffffff"
     bordercolor="#000000"
     borderopacity="0.25"
     inkscape:showpageshadow="2"
     inkscape:pageopacity="0.0"
     inkscape:pagecheckerboard="0"
     inkscape:deskcolor="#d1d1d1" />
  <g
     id="g8"
     inkscape:groupmode="layer"
     inkscape:label="ink_ext_XXXXXX"
     transform="matrix(1.3333333,0,0,-1.3333333,0,2829.3333)">
    <g
       id="g10"
       transform="scale(0.1)">
      <path
         d="m 5098.32,7885.9 c 254.53,-1045.7 789.84,-1982.6 1521.56,-2726 l 167.89,113.6 C 6078.63,5984.7 5557.03,6882.8 5303.63,7886.4 l -205.31,-0.5"
         style="fill:#161211;fill-opacity:1;fill-rule:nonzero;stroke:none"
         id="path12" />
      <path
         d="m 13546.3,4317.5 c -814.3,-453.2 -1751,-711.9 -2747.1,-711.9 -1082.13,0 -2094.24,305.1 -2955.29,833.5 l -13.32,-10.1 c -5.75,-4.5 -9.77,-7.6 -14.03,-10.5 l -151.91,-102.7 c 907.42,-575.8 1982.65,-909.7 3134.55,-909.7 1067.2,0 2068.6,286.5 2931.7,786.4 l -184.6,125"
         style="fill:#161211;fill-opacity:1;fill-rule:nonzero;stroke:none"
         id="path14" />
      <path
         d="m 5133.13,9164.8 c -0.71,36.1 -1.37,72.2 -1.37,108.4 0,2054.8 1099.22,3857.6 2740.43,4851.5 v 231.8 c -1755.9,-1015 -2940,-2913.4 -2940,-5083.3 0,-36.8 0.74,-73.5 1.4,-110.1 l 199.54,1.7"
         style="fill:#161211;fill-opacity:1;fill-rule:nonzero;stroke:none"
         id="path16" />
      <path
         d="m 14651.6,5120.4 169.6,-114.6 c 780,735.5 1358.9,1681.9 1645,2747.1 l -175,118.3 C 16017.6,6800.2 15438,5850.4 14651.6,5120.4"
         style="fill:#161211;fill-opacity:1;fill-rule:nonzero;stroke:none"
         id="path18" />
      <path
         d="m 13638.1,14288.1 c 0,-5.9 -0.4,-11.6 -0.8,-17.5 -0.2,-12 -0.8,-24.8 -2,-37.6 -0.6,-8.1 -1.5,-17.8 -2.9,-27.5 -0.7,-6.8 -1.9,-14.9 -3.3,-23.3 1694.9,-980.8 2837.7,-2813.9 2837.7,-4909 0,-37.3 -0.7,-74.5 -1.4,-111.6 l 36.2,-0.2 c 9.5,-0.5 13.9,-0.9 18.4,-1.5 15.5,-1.2 27.4,-2.4 39.4,-4 8.9,-1.2 18.1,-2.7 27.7,-4.4 11.7,-2 23.4,-4.3 35.2,-7.1 9,-2.1 19,-4.6 28.8,-7.4 4.5,-1.2 9,-2.7 13.5,-4.1 1.1,46.7 1.8,93.4 1.8,140.3 0,2206 -1224,4131.1 -3028.3,5133 v -118.1"
         style="fill:#161211;fill-opacity:1;fill-rule:nonzero;stroke:none"
         id="path20" />
      <path
         d="m 12353.6,14724 v 206.9 c -495.3,136.2 -1016.4,209.4 -1554.4,209.4 -570.1,0 -1121.23,-82.1 -1642.75,-234.4 v -208.2 c 520.19,157.8 1071.65,243 1642.75,243 538.8,0 1060.3,-75.6 1554.4,-216.7"
         style="fill:#161211;fill-opacity:1;fill-rule:nonzero;stroke:none"
         id="path22" />
      <path
         d="m 7872.19,14124.7 v -98.5 c 0,-4.9 0.23,-9.6 0.66,-16.6 0.28,-12.2 0.94,-24.4 1.76,-35.5 0.62,-9.9 1.72,-19.7 2.89,-28.7 1.45,-12 3.16,-24 5.55,-37.6 1.79,-9.4 3.59,-18.6 5.54,-26.9 2.39,-10.8 5.24,-21.8 8.25,-32.8 2.81,-10.2 5.97,-20.5 10,-32.7 3.04,-9.1 6.17,-18.2 9.68,-27.2 4.38,-11.3 9.11,-22.5 14.53,-34.3 3.56,-7.7 7.04,-15.3 11.37,-24.2 5.43,-10.7 11.02,-21 17.7,-32.9 2.38,-4.5 4.76,-8.9 9.68,-17 l 494.97,-751 c 123.59,-204.6 340.35,-318.4 560.86,-318.4 111.87,0 224.76,29.3 326.83,90.9 303.01,183 398.09,582.7 209.53,895.1 l -405.54,605.7 v 495.6 208.2 484 l -0.79,7.6 c -3.94,51.5 -46.52,92.2 -98.98,92.2 -55.12,0 -99.77,-44.7 -99.77,-99.8 v -1218.1 c 0,-19.8 5.9,-39.1 16.84,-55.5 l 419.88,-626.9 c 129.26,-214.2 64.5,-491.2 -144.29,-617.2 -209.07,-126.2 -484.3,-54.5 -615.86,163.1 l -496.49,754 -4.53,8.4 c -4.22,7.3 -8.16,14.6 -11.21,20.7 l -9.41,20 c -3.32,7.2 -6.37,14.6 -9.26,22 -2.42,6.4 -4.61,12.8 -6.72,18.9 -2.34,7.3 -4.61,14.6 -6.64,21.8 -2.07,7.7 -4.14,15.4 -6.02,23.9 -1.56,6.8 -2.89,13.4 -3.86,18.5 -1.45,8.5 -2.66,17.3 -3.83,26.7 -0.71,5.4 -1.37,11 -1.8,17.7 -0.66,8.5 -1.13,17 -1.29,23.6 0,4.9 -0.23,9.6 -0.66,14.7 v 2483.2 c 0,209.4 0,645.2 645.23,645.2 h 702.31 c 7.85,68.1 20.31,134.8 37.22,199.6 h -739.53 c -357.03,0 -605.39,-116 -738.2,-344.8 -106.6,-183.7 -106.6,-389.4 -106.6,-500 v -2152.9 -231.8"
         style="fill:#161211;fill-opacity:1;fill-rule:nonzero;stroke:none"
         id="path24" />
      <path
         d="m 12090.9,17154.6 h 767 c 540.2,0 580.6,-224.4 580.6,-566.8 l -0.2,-2303 -0.6,-9.5 c -0.1,-7.9 -0.4,-15.8 -1.2,-25.4 -0.5,-5.6 -0.9,-11.2 -2,-19.4 -0.9,-8.2 -2.2,-16.4 -3.6,-24.4 l -3.5,-18.2 c -1.9,-7.7 -3.7,-15.4 -6.8,-26.1 -1.7,-6.6 -3.8,-13 -6.3,-20.4 -2,-6.3 -4.2,-12.6 -6.9,-19.4 -3,-7.8 -6.2,-15.6 -9.3,-22.5 -2.7,-6.1 -5.6,-12 -8.6,-18.1 -3.7,-7.3 -7.5,-14.5 -13.5,-25 l -2,-4.6 -649.5,-978 c -62.8,-104.1 -161.5,-178 -277.7,-208 -115.5,-29.8 -234.8,-12.6 -335.7,48.3 -100.9,60.9 -171.6,158.4 -199.1,274.5 -27.6,116.9 -8.2,238.6 52,338.7 l 572.2,850.7 c 11.1,16.5 17,35.9 17,55.7 v 1218.1 c 0,55.1 -44.7,99.8 -99.8,99.8 -55.1,0 -99.8,-44.7 -99.8,-99.8 v -7.7 -713.2 -206.9 -259.9 l -557.9,-829.6 c -89.9,-149.1 -117.6,-323.8 -77.9,-491.8 39.9,-168.7 142.9,-310.6 290.2,-399.4 147.2,-88.9 320.7,-113.9 488.6,-70.7 167.2,43.1 308.8,149 396.4,294.5 l 648.8,976.8 c 3.6,5.5 6.5,11.3 8.8,16.1 6.1,10.5 11.7,20.9 17.2,31.8 4.2,8.4 8.2,16.8 12.4,26 4.8,10.8 9.3,21.8 13.4,32.2 3.7,9.7 7.2,19.5 10.1,28.3 3.6,10.9 7,21.8 9.2,30.1 3.2,10.8 5.9,21.7 9.4,37 l 5,25.3 1.8,11.5 c 1.4,8.4 2.6,16.5 3.3,23.3 1.4,9.7 2.3,19.4 2.9,27.5 1.2,12.8 1.8,25.6 2,37.6 0.4,5.9 0.8,11.6 0.8,17.5 v 118.1 2181.6 c 0,370.8 -60.3,766.4 -780.2,766.4 h -804.2 c 16.9,-64.8 29.4,-131.5 37.2,-199.6"
         style="fill:#161211;fill-opacity:1;fill-rule:nonzero;stroke:none"
         id="path26" />
      <path
         d="m 10755.2,18193.2 c 632.1,0 1146.4,-542.2 1146.4,-1208.8 0,-666.5 -514.3,-1208.7 -1146.4,-1208.7 -632.2,0 -1146.53,542.2 -1146.53,1208.7 0,666.6 514.33,1208.8 1146.53,1208.8 z M 9419.3,17154.6 c -6.49,-55.8 -10.16,-112.5 -10.16,-170.2 0,-776.5 603.86,-1408.3 1346.06,-1408.3 742.1,0 1345.9,631.8 1345.9,1408.3 0,57.7 -3.7,114.4 -10.2,170.2 -7.8,68.1 -20.3,134.8 -37.2,199.6 -155.6,597.7 -678.6,1038.5 -1298.5,1038.5 -619.9,0 -1143.05,-440.8 -1298.68,-1038.5 -16.91,-64.8 -29.37,-131.5 -37.22,-199.6"
         style="fill:#161211;fill-opacity:1;fill-rule:nonzero;stroke:none"
         id="path28" />
      <path
         d="m 18748.7,7760 -1904.9,1288.1 c -4.5,3 -9,5.7 -14.5,8.8 -10.5,6.8 -21.1,13.4 -31.2,19 -8.1,4.7 -16.3,9.1 -24.9,13.4 -11,5.5 -22,10.9 -32.3,15.4 -9,4.1 -18,7.8 -26.8,11.2 -10.4,4.1 -20.9,8 -32.8,12 -5.6,1.8 -11.1,3.3 -16.7,5 -4.5,1.4 -9,2.9 -13.5,4.1 -9.8,2.8 -19.8,5.3 -28.8,7.4 -11.8,2.8 -23.5,5.1 -35.2,7.1 -9.6,1.7 -18.8,3.2 -27.7,4.4 -12,1.6 -23.9,2.8 -39.4,4 -4.5,0.6 -8.9,1 -18.4,1.5 l -36.2,0.2 -1129.1,9.3 c -358.6,19.6 -667.2,-254.1 -685.5,-607.7 -18.3,-353.6 259.6,-656.4 624.3,-675.3 l 995,-2.4 21.1,-14.3 175,-118.3 781.2,-528.4 6.3,-4.3 c 45.7,-30.9 107.8,-18.9 138.6,26.7 30.9,45.7 18.9,107.7 -26.7,138.6 l -1009,682.4 c -16.4,11.1 -35.8,17 -55.6,17.1 l -1020.5,2.3 c -249.9,13 -443,221.9 -430.4,465.6 12.5,243.8 226.7,432.6 480.3,418.6 l 1167,-9.8 10.8,-1.1 c 8.1,-0.6 16.3,-1.4 25.2,-2.6 6.5,-0.8 12.9,-1.9 19.4,-3 7.9,-1.4 15.8,-3 24.7,-5.1 6.6,-1.5 13.2,-3.2 19.7,-5 7.6,-2.1 14.9,-4.4 21.3,-6.5 7.6,-2.5 15,-5.2 22.6,-8.2 6.1,-2.3 12.1,-4.9 18.9,-7.9 7.8,-3.4 15.5,-7.2 23.1,-11.1 5.4,-2.7 10.7,-5.5 16.8,-9.1 7.2,-4 14.4,-8.4 22.1,-13.4 l 1914.9,-1294.1 c 283.6,-191.9 447,-351.2 144.4,-798.5 l -429.7,-635.4 c 51.8,-44.3 100.1,-91.8 144.7,-142.3 l 450.3,665.9 c 403.2,596.1 109.3,867.8 -197.9,1075.7"
         style="fill:#161211;fill-opacity:1;fill-rule:nonzero;stroke:none"
         id="path30" />
      <path
         d="m 16855.4,3948.1 -393.8,-582.3 c -361.4,-534.6 -722.4,-290.4 -896.1,-173.1 l -2058,1391.9 -8.3,6.3 c -7.5,5.4 -14.8,10.9 -21.2,15.8 -4.1,3.3 -8,6.7 -14.1,12.1 -6.7,5.8 -13.2,11.6 -19.9,18.1 -4.4,4.4 -8.7,8.8 -13.8,14.2 -5.1,5.3 -10,10.7 -14.8,16.6 -5.1,6 -10,12.1 -14.6,18 -4.3,5.6 -8.5,11.2 -11.6,15.7 -5,7.4 -9.9,14.6 -14.2,21.5 -3.7,6.1 -7.2,12.1 -10,16.9 -4.1,7.5 -8,14.8 -12,23 l -392.9,992.4 -2.2,5.2 c -51,110.3 -56.9,233.4 -16.6,346.6 40,112.4 121,201.6 228.1,251 106.9,49.5 227.2,53.4 338.8,11.1 111.3,-42.2 200.7,-125.4 252,-234.4 l 327.7,-852.2 c 7.3,-19.1 20.3,-35.5 37.2,-46.9 l 1009,-682.3 c 45.5,-30.9 107.7,-19 138.6,26.7 29.4,43.5 19.5,101.6 -20.9,133.6 l -5.9,5 -424.7,287.2 -169.6,114.6 -388.7,263 -317.7,826.1 -2.6,6 c -73.1,158.2 -202.2,279 -363.7,340.2 -162.2,61.5 -337.5,55.6 -493.3,-16.6 -156.1,-72.1 -274.1,-201.8 -332.3,-365.2 -57.6,-161.7 -49.7,-337.3 22.2,-494.6 l 390.1,-988.4 c 2.4,-5.4 5,-10.4 8.5,-16.6 5.1,-10.4 10.6,-20.8 17.1,-32.5 4.5,-7.9 9,-15.6 14.2,-24 6,-9.7 12.3,-19.1 19.4,-29.6 5.8,-8.2 11.8,-16.3 18.2,-24.7 6.5,-8.3 12.9,-16.2 19.4,-24 7.7,-9.2 15.5,-17.9 22.8,-25.5 5.7,-6.1 11.4,-11.9 20.7,-21.2 8.9,-8.6 17.8,-16.6 28.7,-26 6.4,-5.6 12.7,-11 20.4,-17.2 9,-7 18.2,-13.9 29.7,-22.3 l 12.2,-8.9 149.4,-100.9 184.6,-125 1723,-1165.2 c 91.6,-61.9 262.2,-177.2 474,-191.7 15.1,-1 30,-1.5 44.9,-1.5 245.7,0 465.6,141.1 654.2,419.9 l 414.5,613.1 c -63.6,22.5 -125.7,49.5 -186.1,81"
         style="fill:#161211;fill-opacity:1;fill-rule:nonzero;stroke:none"
         id="path32" />
      <path
         d="m 18463.7,4472.4 c -207.3,-306.3 -560.2,-489.2 -944.2,-489.2 -247.9,0 -489.7,75 -699.3,216.7 -268.2,181.4 -453.1,451 -520.5,759.4 -67,306.4 -9.8,614.5 161.2,867.4 207.3,306.4 560.2,489.3 944.1,489.3 247.9,0 489.8,-75 699.5,-216.8 268.2,-181.3 453,-451 520.4,-759.2 67,-306.6 9.7,-614.6 -161.2,-867.6 z m -112.1,1688.3 c -42.9,36.8 -87.8,71.7 -135.4,103.8 -242.8,164.2 -523.3,251 -811.2,251 -450.3,0 -865,-215.7 -1109.3,-577 -201.9,-298.6 -269.7,-661.5 -190.9,-1021.9 78.4,-358.6 292.8,-671.8 603.6,-882 47.5,-32.1 96.8,-60.3 147,-86.5 60.4,-31.5 122.5,-58.5 186.1,-81 153.3,-54.4 314.3,-83.4 478,-83.4 450.3,0 865,215.6 1109.5,577 201.8,298.6 269.6,661.5 190.8,1021.8 -51.9,237.5 -163.8,454.9 -323.5,635.9 -44.6,50.5 -92.9,98 -144.7,142.3"
         style="fill:#161211;fill-opacity:1;fill-rule:nonzero;stroke:none"
         id="path34" />
      <path
         d="m 11050.3,7524.5 1918.4,2726.1 1280.5,-1390.7 -1431.8,-2034.7 z m 1981.5,2952.3 c -20.5,22.2 -49.4,34.2 -80,31.9 -30.1,-1.9 -57.7,-17.4 -75.1,-42.1 L 10814.2,7535.8 c -17.6,-25.1 -22.8,-56.7 -14,-86 8.7,-29.3 30.5,-53 58.9,-64.2 L 12817,6610.7 c 12,-4.7 24.4,-7 36.7,-7 31.8,0 62.5,15.2 81.7,42.4 l 1523.3,2164.7 c 27,38.5 23.6,90.5 -8.2,125 l -1418.7,1541"
         style="fill:#161211;fill-opacity:1;fill-rule:nonzero;stroke:none"
         id="path36" />
      <path
         d="m 2861.52,6160.7 -429.72,635.4 c -302.5,447.4 -139.18,606.7 144.41,798.5 l 1905.55,1288.5 9.22,5.6 c 7.57,4.7 15,9.4 23.04,14 5.47,3.1 10.94,6 15.78,8.5 7.66,3.8 15.2,7.6 24.58,11.6 5.62,2.6 11.36,5 18,7.6 7.31,2.8 14.57,5.5 21.21,7.8 7.35,2.3 14.69,4.6 22.19,6.7 6.49,1.8 13.09,3.5 20.9,5.3 7.85,1.8 15.82,3.4 24.18,4.8 6.25,1.1 12.42,2.2 19.57,3.1 8.28,1.1 16.41,1.9 23.55,2.5 3.72,0.2 7.35,0.6 13.05,1.2 l 1169.92,9.8 c 248.79,12.1 463.48,-174.9 476.02,-418.7 12.62,-243.7 -180.47,-452.6 -425.43,-465.4 L 4912.15,8085 c -19.81,-0.1 -39.22,-6 -55.63,-17.1 L 3847.5,7385.5 c -45.62,-30.9 -57.62,-92.9 -26.72,-138.5 30.78,-45.8 92.93,-57.6 138.52,-26.8 l 6.36,4.3 977.43,661 155.23,0.4 205.31,0.5 639.3,1.7 c 359.8,18.7 637.62,321.5 619.3,675.1 -18.17,353.6 -324.3,626.3 -681.21,607.9 l -747.89,-6.3 -199.54,-1.7 -226.99,-1.9 c -4.72,-0.3 -9.26,-0.7 -17.11,-1.6 -11.87,-0.9 -23.67,-2.1 -34.88,-3.6 -9.77,-1.3 -19.38,-2.8 -28.4,-4.4 -11.83,-2.1 -23.75,-4.5 -34.33,-7 -10,-2.2 -19.97,-4.8 -29.93,-7.6 -10.19,-2.8 -20.15,-5.9 -31.13,-9.4 -10.9,-3.7 -21.37,-7.6 -31.09,-11.4 -9.5,-3.7 -18.75,-7.5 -26.33,-11 -11.33,-4.9 -22.46,-10.3 -34.22,-16.3 -8.13,-4.1 -16.29,-8.4 -23.83,-12.8 -10.31,-5.8 -20.47,-12.2 -33.08,-20 -4.03,-2.3 -8.09,-4.7 -12.86,-7.9 L 2464.45,7759.9 c -307.18,-207.8 -601.09,-479.3 -198,-1075.6 L 2717.07,6018 c 44.22,50.3 92.42,97.9 144.45,142.7"
         style="fill:#161211;fill-opacity:1;fill-rule:nonzero;stroke:none"
         id="path38" />
      <path
         d="m 7816.56,4418.5 c 4.26,2.9 8.28,6 14.03,10.5 l 13.32,10.1 c 5,3.7 9.84,7.1 15.15,11.3 7.42,5.8 14.49,11.9 21.37,17.9 9.1,8 17.81,15.9 27.81,25.6 6.56,6.5 12.78,12.8 19.38,19.7 7.85,8.4 15.51,16.9 22.97,25.8 6.95,8.3 13.9,16.7 19.72,24.4 6.17,8.1 12.19,16.2 17.82,24.3 7.22,10.3 14.06,20.5 19.88,30.3 l 11.72,19.5 2.97,5.1 c 5.78,10.5 11.13,20.9 17.07,32.7 2.5,4.4 4.88,8.9 7.14,13.7 l 2.47,5.7 388.24,984.2 c 71.99,157.3 79.92,332.9 22.34,494.6 -58.2,163.4 -176.25,293.1 -332.3,365.2 -321.33,148.8 -705.86,3.5 -857.19,-323.5 l -2.62,-6.1 -317.65,-826.1 -162.43,-109.9 -167.89,-113.6 -652.69,-441.3 -5.82,-4.9 c -40.43,-32.1 -50.28,-90.2 -20.86,-133.7 30.9,-45.6 92.85,-57.6 138.55,-26.7 l 1008.87,682.3 c 16.91,11.4 29.92,27.8 37.27,46.9 l 327.69,852.1 c 106.13,225.3 370.43,325.3 591.02,223.4 106.99,-49.4 188.04,-138.6 228.04,-251 40.28,-113.2 34.38,-236.3 -16.68,-346.6 l -2.22,-5.2 -387.7,-982.5 -5.62,-10.7 c -3.64,-7.4 -7.43,-14.7 -12.15,-23.1 l -10,-16.8 c -3.99,-6.6 -8.28,-12.9 -12.85,-19.5 -3.99,-5.7 -8.13,-11.3 -13.21,-17.8 -4.37,-5.9 -9.1,-11.6 -13.94,-17.3 -4.92,-5.9 -9.92,-11.4 -14.85,-16.6 -4.96,-5.3 -9.88,-10.2 -13.94,-14.3 -6.49,-6.2 -12.77,-12 -19.61,-18 -4.65,-4 -9.26,-8 -13.16,-11.1 -7.31,-5.7 -14.69,-11.2 -21.14,-15.9 l -10.23,-7.9 L 5647.3,3192.6 c -173.39,-117.2 -534.37,-361.2 -895.82,173.2 L 4357.77,3948 c -60.47,-31.4 -122.57,-58.5 -186.13,-81 l 414.53,-613 c 188.6,-278.9 408.52,-419.9 654.22,-419.9 14.81,0 29.73,0.5 44.73,1.5 211.83,14.5 382.34,129.7 474.18,191.8 l 1905.35,1288.4 151.91,102.7"
         style="fill:#161211;fill-opacity:1;fill-rule:nonzero;stroke:none"
         id="path40" />
      <path
         d="m 3693.71,3983.2 c -384.02,0 -736.99,182.9 -944.18,489.2 -354.1,523.7 -193.01,1253.4 359.1,1626.8 209.69,141.8 451.57,216.8 699.46,216.8 383.94,0 736.83,-182.9 944.02,-489.3 171.02,-252.9 228.32,-561 161.29,-867.4 -67.38,-308.4 -252.23,-578 -520.39,-759.4 -209.61,-141.7 -451.37,-216.7 -699.22,-216.7 z m 664.06,-35.2 c 50.12,26.2 99.5,54.4 147,86.6 310.82,210.2 525.19,523.4 603.59,882 78.79,360.4 10.98,723.3 -190.98,1021.9 -244.33,361.3 -658.98,577 -1109.29,577 -287.89,0 -568.4,-86.8 -811.21,-251 -47.82,-32.3 -92.74,-67.2 -135.36,-103.8 -52.03,-44.8 -100.23,-92.4 -144.45,-142.7 -407.89,-463.7 -480.12,-1143.9 -132.81,-1657.3 244.33,-361.3 659.06,-577 1109.41,-577 h 0.12 c 163.63,0 324.61,29 477.85,83.3 63.56,22.5 125.66,49.6 186.13,81"
         style="fill:#161211;fill-opacity:1;fill-rule:nonzero;stroke:none"
         id="path42" />
      <path
         d="M 8424.49,6845.1 6998.2,8871.8 8273.59,10256.9 10184.5,7541.5 Z m -58.9,3627.9 c -17.39,24.6 -44.96,40.1 -75.08,42.1 -30.67,2.2 -59.53,-9.8 -79.96,-32 L 6796.88,8947.8 c -31.84,-34.5 -35.24,-86.6 -8.21,-125 L 8306.52,6665.9 c 19.14,-27.2 49.89,-42.3 81.68,-42.3 12.27,0 24.69,2.3 36.68,7 l 1950.82,771.9 c 28.4,11.3 50.2,34.9 58.9,64.3 8.8,29.2 3.6,60.9 -14,85.9 L 8365.59,10473"
         style="fill:#161211;fill-opacity:1;fill-rule:nonzero;stroke:none"
         id="path44" />
      <path
         d="m 11953.5,12413.3 414,-1517.4 -3226.87,21.2 391.21,1512.1 z m -2942.17,-1694.9 3486.47,-22.9 h 0.6 c 31,0 60.2,14.4 79.1,39 19,24.8 25.4,56.9 17.2,87.1 l -468.6,1717.3 c -11.8,43.1 -50.9,73.2 -95.7,73.5 l -2575.05,16.8 h -0.62 c -45.47,0 -85.2,-30.7 -96.6,-74.8 l -442.78,-1711.2 c -7.69,-29.8 -1.21,-61.4 17.46,-85.8 18.79,-24.4 47.74,-38.8 78.52,-39"
         style="fill:#161211;fill-opacity:1;fill-rule:nonzero;stroke:none"
         id="path46" />
    </g>
  </g>
</svg>
